<svg width="1280" height="840" viewBox="0 0 1280 840" fill="none" xmlns="http://www.w3.org/2000/svg">
  <rect width="1280" height="840" rx="40" fill="#091018"/>
  <rect x="28" y="28" width="1224" height="784" rx="32" fill="url(#bg)"/>
  <rect x="110" y="130" width="360" height="520" rx="28" fill="#101923" stroke="#3A2A11"/>
  <rect x="490" y="92" width="344" height="560" rx="28" fill="#0F1822" stroke="#3A2A11"/>
  <rect x="854" y="160" width="316" height="484" rx="28" fill="#101923" stroke="#3A2A11"/>
  <rect x="142" y="176" width="296" height="116" rx="18" fill="#13202C"/>
  <rect x="142" y="316" width="296" height="288" rx="22" fill="#0C4C38" stroke="#C9A84C"/>
  <rect x="524" y="136" width="276" height="112" rx="18" fill="#13202C"/>
  <rect x="524" y="272" width="276" height="156" rx="18" fill="#13202C"/>
  <rect x="524" y="448" width="276" height="164" rx="18" fill="#0C4C38" stroke="#C9A84C"/>
  <rect x="888" y="204" width="248" height="144" rx="18" fill="#13202C"/>
  <rect x="888" y="366" width="248" height="96" rx="18" fill="#13202C"/>
  <rect x="888" y="480" width="248" height="128" rx="18" fill="#13202C"/>
  <path d="M182 540L228 488L270 512L322 420L396 468" stroke="#E2C56E" stroke-width="8" stroke-linecap="round" stroke-linejoin="round"/>
  <circle cx="228" cy="488" r="8" fill="#F7E6B0"/>
  <circle cx="322" cy="420" r="8" fill="#F7E6B0"/>
  <path d="M570 534H754" stroke="#E2C56E" stroke-width="10" stroke-linecap="round"/>
  <path d="M570 570H716" stroke="#E2C56E" stroke-width="10" stroke-linecap="round"/>
  <path d="M570 606H680" stroke="#E2C56E" stroke-width="10" stroke-linecap="round"/>
  <circle cx="970" cy="276" r="46" fill="none" stroke="#E2C56E" stroke-width="10"/>
  <circle cx="970" cy="276" r="10" fill="#E2C56E"/>
  <path d="M970 230V322M924 276H1016" stroke="#E2C56E" stroke-width="5" stroke-linecap="round"/>
  <text x="110" y="96" fill="#E7CF87" font-size="22" font-family="DM Sans, Arial, sans-serif" letter-spacing="4">PRODUCT MOCKUPS</text>
  <text x="142" y="236" fill="#F7F1E3" font-size="28" font-family="DM Sans, Arial, sans-serif" font-weight="700">Dashboard</text>
  <text x="524" y="196" fill="#F7F1E3" font-size="28" font-family="DM Sans, Arial, sans-serif" font-weight="700">Catalogue</text>
  <text x="888" y="260" fill="#F7F1E3" font-size="28" font-family="DM Sans, Arial, sans-serif" font-weight="700">Certification</text>
  <defs>
    <linearGradient id="bg" x1="96" y1="60" x2="1160" y2="760" gradientUnits="userSpaceOnUse">
      <stop stop-color="#0D1721"/>
      <stop offset="1" stop-color="#0B1016"/>
    </linearGradient>
  </defs>
</svg>
